<?xml version="1.0" encoding="UTF-8" standalone="no"?>
<!-- Created with Inkscape (http://www.inkscape.org/) -->

<svg
   xmlns:dc="http://purl.org/dc/elements/1.1/"
   xmlns:cc="http://creativecommons.org/ns#"
   xmlns:rdf="http://www.w3.org/1999/02/22-rdf-syntax-ns#"
   xmlns:svg="http://www.w3.org/2000/svg"
   xmlns="http://www.w3.org/2000/svg"
   xmlns:sodipodi="http://sodipodi.sourceforge.net/DTD/sodipodi-0.dtd"
   xmlns:inkscape="http://www.inkscape.org/namespaces/inkscape"
   width="65"
   height="65"
   id="svg2"
   version="1.1"
   inkscape:version="0.48.4 r9939"
   sodipodi:docname="hot.svg"
   inkscape:export-filename="/home/gambala/git/pizzeria/app/assets/images/hot.png"
   inkscape:export-xdpi="90"
   inkscape:export-ydpi="90">
  <defs
     id="defs4" />
  <sodipodi:namedview
     id="base"
     pagecolor="#ffffff"
     bordercolor="#666666"
     borderopacity="1.0"
     inkscape:pageopacity="0.0"
     inkscape:pageshadow="2"
     inkscape:zoom="7.9195959"
     inkscape:cx="22.172876"
     inkscape:cy="33.364493"
     inkscape:document-units="px"
     inkscape:current-layer="layer1"
     showgrid="false"
     inkscape:object-paths="true"
     inkscape:snap-intersection-paths="true"
     inkscape:snap-smooth-nodes="true"
     inkscape:object-nodes="true"
     inkscape:window-width="1920"
     inkscape:window-height="1025"
     inkscape:window-x="0"
     inkscape:window-y="0"
     inkscape:window-maximized="1" />
  <metadata
     id="metadata7">
    <rdf:RDF>
      <cc:Work
         rdf:about="">
        <dc:format>image/svg+xml</dc:format>
        <dc:type
           rdf:resource="http://purl.org/dc/dcmitype/StillImage" />
        <dc:title />
      </cc:Work>
    </rdf:RDF>
  </metadata>
  <g
     inkscape:label="Layer 1"
     inkscape:groupmode="layer"
     id="layer1"
     transform="translate(0,-987.3622)">
    <path
       style="fill:#fac217;fill-opacity:1;stroke:none"
       d="M 65,987.36218 0,1052.3622 0,1019.8605 32.498365,987.36218 z"
       id="path3759"
       inkscape:connector-curvature="0"
       inkscape:export-filename="/home/gambala/git/pizzeria/app/assets/images/hot.png"
       inkscape:export-xdpi="90"
       inkscape:export-ydpi="90" />
    <g
       transform="matrix(0.70710678,-0.70710678,0.70710678,0.70710678,0,0)"
       style="font-size:44.93863297px;font-style:normal;font-variant:normal;font-weight:300;font-stretch:normal;line-height:125%;letter-spacing:0px;word-spacing:0px;fill:#000000;fill-opacity:1;stroke:none;font-family:Roboto;-inkscape-font-specification:Roboto Light"
       id="text3755">
      <path
         d="m -710.97543,730.89271 0.0658,0 1.82124,-3.77414 3.62055,0 -3.57666,5.86967 3.69734,6.00132 -3.60957,0 -1.94193,-3.93871 -1.94193,3.93871 -3.62054,0 3.69734,-6.00132 -3.58763,-5.86967 3.5986,0 1.77736,3.77414"
         style="font-size:22.46931648px;font-weight:bold;letter-spacing:1.49000001px"
         id="path2986" />
      <path
         d="m -695.36531,727.11857 3.19267,0 0,11.87099 -3.19267,0 0,-7.24109 -0.0658,-0.011 -3.87289,7.25206 -3.20363,0 0,-11.87099 3.20363,0 0,7.21914 0.0658,0.011 3.87288,-7.23011"
         style="font-size:22.46931648px;font-weight:bold;letter-spacing:1.49000001px"
         id="path2988" />
      <path
         d="m -678.23017,729.56518 -3.79608,0 0,9.42438 -3.21461,0 0,-9.42438 -3.74122,0 0,-2.44661 10.75191,0 0,2.44661"
         style="font-size:22.46931648px;font-weight:bold;letter-spacing:1.49000001px"
         id="path2990" />
    </g>
  </g>
</svg>
