<?xml version="1.0" encoding="UTF-8" standalone="no"?>
<!-- Generated by IcoMoon.io -->

<svg
   xmlns:dc="http://purl.org/dc/elements/1.1/"
   xmlns:cc="http://creativecommons.org/ns#"
   xmlns:rdf="http://www.w3.org/1999/02/22-rdf-syntax-ns#"
   xmlns:svg="http://www.w3.org/2000/svg"
   xmlns="http://www.w3.org/2000/svg"
   xmlns:sodipodi="http://sodipodi.sourceforge.net/DTD/sodipodi-0.dtd"
   xmlns:inkscape="http://www.inkscape.org/namespaces/inkscape"
   version="1.1"
   width="100"
   height="100"
   viewBox="0 0 100 100"
   id="svg2"
   inkscape:version="0.91 r13725"
   sodipodi:docname="spicy.svg">
  <metadata
     id="metadata17">
    <rdf:RDF>
      <cc:Work
         rdf:about="">
        <dc:format>image/svg+xml</dc:format>
        <dc:type
           rdf:resource="http://purl.org/dc/dcmitype/StillImage" />
        <dc:title></dc:title>
      </cc:Work>
    </rdf:RDF>
  </metadata>
  <defs
     id="defs15" />
  <sodipodi:namedview
     pagecolor="#ffffff"
     bordercolor="#666666"
     borderopacity="1"
     objecttolerance="10"
     gridtolerance="10"
     guidetolerance="10"
     inkscape:pageopacity="0"
     inkscape:pageshadow="2"
     inkscape:window-width="1920"
     inkscape:window-height="1021"
     id="namedview13"
     showgrid="false"
     inkscape:zoom="1.3906433"
     inkscape:cx="-73.895389"
     inkscape:cy="60.4624"
     inkscape:window-x="0"
     inkscape:window-y="0"
     inkscape:window-maximized="1"
     inkscape:current-layer="svg2" />
  <g
     id="g4144"
     transform="matrix(0.83170248,0,0,0.83592468,-0.01940526,-0.454032)"
     inkscape:export-xdpi="90"
     inkscape:export-ydpi="90">
    <g
       id="icomoon-ignore">
      <line
         id="line5"
         opacity=""
         y2="0"
         x2="0"
         y1="0"
         x1="0"
         style="stroke:#449fdb;stroke-width:1" />
    </g>
    <path
       style="fill:#00c300;fill-opacity:1"
       id="path7"
       d="m 117.616,64.468 c -9.36,0 -11.644,5.924 -13.484,10.696 -0.568,1.476 -1.104,2.828 -1.772,4.048 -4.756,-5.72 -12.976,-7.752 -23.476,-5.968 0.328,0.42 0.624,0.884 0.892,1.392 1.492,2.868 1.648,6.772 -0.532,10.288 2.964,0.772 5.38,2.596 6.72,5.268 1.548,3.06 1.456,6.62 -0.068,10.076 5.532,-0.604 10.216,1.352 12.676,4.388 1.412,1.748 2.072,3.76 2.024,5.84 1.024,-0.9 1.952,-1.856 2.752,-2.908 4.136,-5.416 5.056,-12.5 2.728,-21.068 -0.252,-0.904 -0.548,-1.76 -0.884,-2.584 1.744,-2.188 2.748,-4.704 3.616,-6.976 1.744,-4.508 2.892,-7.492 8.812,-7.492 1.384,0 2.5,-1.116 2.5,-2.5 -0.004,-1.384 -1.12,-2.5 -2.504,-2.5 z"
       inkscape:connector-curvature="0" />
    <path
       style="fill:#ff0000;fill-opacity:1"
       id="path9"
       d="m 80.564,107.04 c -1.124,0.572 -2.492,0.22 -3.196,-0.812 -0.712,-1.032 -0.548,-2.436 0.388,-3.272 4.596,-4.132 4.888,-8.248 3.752,-10.508 -1.208,-2.4 -4.148,-3.424 -7.664,-2.712 -1.216,0.252 -2.38,-0.4 -2.824,-1.516 -0.448,-1.112 -0.04,-2.404 0.988,-3.048 4.232,-2.672 4.44,-6.108 3.332,-8.244 -0.472,-0.916 -3.128,-2.788 -4.908,-1.62 -2.304,0.752 -4.692,1.628 -7.156,2.7 -14.568,6.328 -30.84,5.584 -43.692,-1.752 -7.856,-4.492 -16.668,-2.376 -19.068,4 -1.78,4.74 0.256,10.28 5.452,14.844 12.876,11.304 29.748,22.992 57.192,23.944 1.548,0.056 3.076,0.084 4.564,0.084 l 0,0 c 10.832,0 19.48,-1.46 25.928,-4.32 0.088,-0.288 0.236,-0.584 0.428,-0.836 1.808,-2.24 2.02,-4.424 0.6,-6.18 -2.204,-2.712 -7.908,-3.908 -14.116,-0.752 z"
       inkscape:connector-curvature="0" />
    <path
       style="fill:#ff7d00;fill-opacity:1"
       id="path11"
       d="m 42.836,77.296 c 6.32,0 12.524,-1.304 18.444,-3.88 9.016,-3.912 17.264,-5.904 24.536,-5.904 0.956,0 1.856,0.108 2.772,0.18 C 87.608,58.088 82.46,48.692 76,45.52 75.196,45.116 74.228,45.188 73.476,45.704 72.724,46.22 72.32,47.1 72.408,48 c 0.636,6.676 -2.444,14.748 -5.42,16.668 -0.788,0.516 -1.296,0.416 -1.812,0.124 -1.416,-0.8 0.632,-5.788 2.128,-9.432 1.568,-3.808 3.184,-7.752 3.388,-11.344 C 71.06,37.176 67.88,27.324 59.94,20.724 59.184,20.1 58.14,19.972 57.252,20.396 c -0.884,0.42 -1.428,1.328 -1.412,2.308 0.12,5.412 -1.428,7.592 -2.268,7.988 -0.128,0.06 -0.524,0.252 -1.268,-0.4 C 50.024,28.316 47.016,20.3 51.976,4.096 52.288,3.064 51.904,1.948 51.036,1.324 50.156,0.7 48.976,0.712 48.116,1.348 33.412,12.068 35.584,25.676 37.504,37.684 c 0.664,4.164 1.288,8.104 1.276,11.88 -0.008,5.02 -2.416,8.456 -4.792,9.64 C 33.124,59.632 31.86,59.96 30.736,59.116 28.788,57.652 27.312,52.788 29,43.52 c 0.188,-1.056 -0.308,-2.108 -1.244,-2.632 -0.936,-0.52 -2.092,-0.392 -2.892,0.324 -7.168,6.44 -10.42,17.736 -10.916,27.872 2.78,0.408 5.54,1.36 8.116,2.828 6.164,3.524 13.352,5.384 20.772,5.384 z"
       inkscape:connector-curvature="0" />
  </g>
</svg>
